<svg width="25" height="23" viewBox="0 0 25 23" fill="none" xmlns="http://www.w3.org/2000/svg">
<path d="M0.00854683 8.78084C0.036232 8.65496 0.128126 8.55291 0.250391 8.51214L8.61761 5.72309C8.80941 5.65922 9.01688 5.76283 9.08084 5.95468C9.14481 6.14657 9.0411 6.35399 8.8492 6.41791L1.85996 8.74764L10.7928 10.3012L22.4746 1.87612L10.4133 5.89657C10.2214 5.96039 10.014 5.85687 9.95003 5.66498C9.88607 5.47309 9.98978 5.26566 10.1817 5.20175L24.518 0.422951C24.5229 0.421339 24.5263 0.420998 24.5305 0.419923C24.6344 0.389357 24.7496 0.404591 24.8433 0.47007C24.9872 0.57046 25.0396 0.75879 24.9684 0.919092L15.2614 22.7599C15.2131 22.8686 15.115 22.947 14.9984 22.9703C14.9745 22.975 14.9506 22.9774 14.9268 22.9774C14.8339 22.9774 14.7434 22.942 14.6747 22.8769L10.6242 19.0349L7.03314 21.3029C7.03148 21.304 7.02962 21.3043 7.02792 21.305C6.97152 21.3394 6.90633 21.3595 6.83783 21.3595C6.82411 21.3595 6.81034 21.3587 6.79642 21.3572C6.62757 21.3381 6.49403 21.2053 6.47396 21.0366L5.68075 14.3643L0.115284 9.12625C0.0213871 9.03792 -0.0191383 8.90672 0.00854683 8.78084ZM1.5061 9.42947L6.05951 13.715L9.96243 10.9001L1.5061 9.42947ZM8.98431 16.4699L14.2805 21.4934L12.2945 13.2571L8.98431 16.4699ZM8.61092 17.1252L7.54041 20.1163L10.076 18.5148L8.61092 17.1252ZM7.01742 19.404L8.11063 16.3495C8.11136 16.3474 8.11248 16.3456 8.11327 16.3435C8.13211 16.2937 8.16136 16.2479 8.20037 16.2101L13.6198 10.95C13.7649 10.8092 13.9968 10.8127 14.1377 10.9577C14.2785 11.1029 14.2751 11.3347 14.13 11.4756L12.905 12.6645L15.03 21.4771L23.5301 2.3519L15.1816 10.4549C15.0365 10.5957 14.8046 10.5923 14.6637 10.4471C14.5229 10.302 14.5263 10.0701 14.6715 9.92933L20.7765 4.0039L6.41776 14.3598L7.01742 19.404Z" fill="black"/>
</svg>
